<?xml version="1.0" standalone="no"?>
<!DOCTYPE svg PUBLIC "-//W3C//DTD SVG 20010904//EN"
 "http://www.w3.org/TR/2001/REC-SVG-20010904/DTD/svg10.dtd">
<svg version="1.0" xmlns="http://www.w3.org/2000/svg"
 width="512.000000pt" height="512.000000pt" viewBox="0 0 512.000000 512.000000"
 preserveAspectRatio="xMidYMid meet">

<g transform="translate(0.000000,512.000000) scale(0.100000,-0.100000)"
fill="#000000" stroke="none">
<path d="M2305 3424 c-377 -80 -644 -427 -622 -809 7 -126 26 -197 81 -310 96
-194 252 -330 461 -401 115 -39 304 -46 425 -15 98 25 193 67 263 117 l50 36
181 -181 c161 -160 186 -181 215 -181 43 0 81 38 81 81 0 29 -21 54 -181 215
l-181 181 36 50 c148 206 179 510 78 751 -144 344 -523 543 -887 466z m309
-164 c226 -57 405 -235 461 -455 18 -70 20 -212 4 -287 -47 -223 -240 -421
-461 -473 -82 -19 -228 -19 -303 0 -220 56 -398 236 -455 461 -115 448 306
869 754 754z"/>
</g>
</svg>
